<svg width="192" height="128" viewBox="0 0 192 128" fill="none" xmlns="http://www.w3.org/2000/svg">
<path d="M80 8H112C117.333 8 120 10.6667 120 16V48C120 53.3333 117.333 56 112 56H80C74.6667 56 72 53.3333 72 48V16C72 10.6667 74.6667 8 80 8ZM95 22L92 31L89 22H85V24L91 42H93L96 33L99 42H101L107 24V22H103L100 31L97 22H95Z" fill="white"/>
<path d="M16 72H48C53.3333 72 56 74.6667 56 80V112C56 117.333 53.3333 120 48 120H16C10.6667 120 8 117.333 8 112V80C8 74.6667 10.6667 72 16 72ZM38 106H42L34 86H30L22 106H26L27.6 102H36.4L38 106ZM32 91L34.8 98H29.2L32 91Z" fill="white"/>
<path d="M98 94H94C93.4667 94 93 93.8 92.6 93.4C92.2 93 92 92.5333 92 92C92 91.4667 92.1833 91.0167 92.55 90.65L92.65 90.55C93.0167 90.1833 93.4667 90 94 90H98.05C98.55 90 98.9833 90.1833 99.35 90.55L99.45 90.65C99.8167 91.0167 100 91.4667 100 92L103.85 90.5L103.7 90C103.4 89.2 102.917 88.4667 102.25 87.8L102.2 87.75C101.067 86.6167 99.7167 86.0333 98.15 86H94C92.3667 86 90.9667 86.5833 89.8 87.75L89.75 87.8C88.5833 88.9667 88 90.3667 88 92C88 93.6667 88.5833 95.0833 89.75 96.25C90.9167 97.4167 92.3333 98 94 98H98C98.5333 98 99 98.2 99.4 98.6C99.8 99 100 99.4667 100 100C100 100.533 99.8167 100.983 99.45 101.35L99.35 101.45C98.9833 101.817 98.5333 102 98 102H93.95C93.45 102 93.0167 101.817 92.65 101.45L92.55 101.35C92.1833 100.983 92 100.533 92 100L88.2 101.55L88.35 102C88.6167 102.8 89.0833 103.533 89.75 104.2L89.8 104.25C90.9333 105.383 92.2833 105.967 93.85 106H98C99.6333 106 101.033 105.417 102.2 104.25L102.25 104.2C103.417 103.033 104 101.633 104 100C104 98.3333 103.417 96.9167 102.25 95.75C101.083 94.5833 99.6667 94 98 94ZM80 72H112C117.333 72 120 74.6667 120 80V112C120 117.333 117.333 120 112 120H80C74.6667 120 72 117.333 72 112V80C72 74.6667 74.6667 72 80 72Z" fill="white"/>
<path d="M144 72H176C181.333 72 184 74.6667 184 80V112C184 117.333 181.333 120 176 120H144C138.667 120 136 117.333 136 112V80C136 74.6667 138.667 72 144 72ZM156 90H158.15C159.717 90.0333 161.083 90.6333 162.25 91.8C163.417 92.9667 164 94.3667 164 96C164 97.6333 163.417 99.05 162.25 100.25C161.083 101.383 159.717 101.967 158.15 102H156V90ZM152 86V106H158.25C160.917 105.933 163.2 104.967 165.1 103.1L166.05 102C167.35 100.267 168 98.2667 168 96C168 93.7 167.35 91.7 166.05 90L165.1 88.95C163.2 87.05 160.917 86.0667 158.25 86H152Z" fill="white"/>
</svg>
