<svg width="64" height="64" viewBox="0 0 64 64" fill="none" xmlns="http://www.w3.org/2000/svg">
    <path
        d="M50.79 32C50.79 35.7163 49.688 39.3491 47.6233 42.4391C45.5586 45.5291 42.624 47.9375 39.1906 49.3597C35.7572 50.7818 31.9791 51.1539 28.3342 50.4289C24.6893 49.7039 21.3413 47.9143 18.7134 45.2865C16.0856 42.6587 14.296 39.3106 13.571 35.6657C12.846 32.0208 13.2181 28.2428 14.6403 24.8093C16.0624 21.3759 18.4708 18.4413 21.5608 16.3766C24.6508 14.312 28.2837 13.21 32 13.21C32.5304 13.21 33.0391 13.4207 33.4142 13.7957C33.7893 14.1708 34 14.6795 34 15.21C34 15.7404 33.7893 16.2491 33.4142 16.6242C33.0391 16.9992 32.5304 17.21 32 17.21C29.0748 17.21 26.2153 18.0774 23.7831 19.7025C21.3509 21.3277 19.4552 23.6376 18.3358 26.3401C17.2164 29.0426 16.9235 32.0164 17.4942 34.8853C18.0648 37.7543 19.4734 40.3897 21.5419 42.4581C23.6103 44.5265 26.2456 45.9351 29.1146 46.5058C31.9836 47.0765 34.9573 46.7836 37.6599 45.6641C40.3624 44.5447 42.6723 42.649 44.2974 40.2168C45.9226 37.7846 46.79 34.9251 46.79 32C46.79 31.4695 47.0007 30.9608 47.3758 30.5857C47.7508 30.2107 48.2595 30 48.79 30C49.3204 30 49.8291 30.2107 50.2042 30.5857C50.5793 30.9608 50.79 31.4695 50.79 32V32Z"
        fill="#FFFFFF" />
</svg>
    