<svg width="32" height="32" viewBox="0 0 32 32" fill="none" xmlns="http://www.w3.org/2000/svg">
<path d="M27.1 6.75L24.8 10.05L25.75 10.9C27.2167 12.3667 27.95 14.1167 27.95 16.15C27.95 18.2167 27.2167 19.9833 25.75 21.45L25.7 21.5L24.8 22.25L27.1 25.55L28.55 24.3L28.65 24.2C30.85 22 31.95 19.3167 31.95 16.15C31.95 13.0167 30.85 10.3333 28.65 8.09999L28.6 8.04999L27.1 6.75Z" fill="white"/>
<path d="M19.4 0.599991C19 0.199991 18.5333 0 18 0H16L4 12H0V20H4L16 32H18C18.5333 32 19 31.8167 19.4 31.45C19.8 31.05 20 30.5667 20 30V2C20 1.46667 19.8 0.999991 19.4 0.599991Z" fill="white"/>
</svg>
